REM DIRINDEX 1\2,1\3,1\4,1\5\6,1\5\7,1\8
REM DIRNAME folder01,folder02,folder03,folder04,folder05,folder06,folder07,folder08
TITLE ""
FILE "018 Åy018ÅzUnit1 (0205 violation_0216 criticism).mp3" MP3
  TRACK 01 AUDIO
    TITLE "0:"
    INDEX 01 00:00:00
  TRACK 02 AUDIO
    TITLE "2:cjc115_0614"
    INDEX 01 00:00:07
  TRACK 03 AUDIO
    TITLE "0:"
    INDEX 01 00:01:38
  TRACK 04 AUDIO
    TITLE "3:cjc115_0615"
    INDEX 01 00:01:44
  TRACK 05 AUDIO
    TITLE "0:"
    INDEX 01 00:02:51
  TRACK 06 AUDIO
    TITLE "4:cjc115_0616"
    INDEX 01 00:02:63
  TRACK 07 AUDIO
    TITLE "0:"
    INDEX 01 00:06:53
  TRACK 08 AUDIO
    TITLE "2:cjc115_0617"
    INDEX 01 00:07:66
  TRACK 09 AUDIO
    TITLE "0:"
    INDEX 01 00:09:02
  TRACK 10 AUDIO
    TITLE "3:cjc115_0618"
    INDEX 01 00:09:08
  TRACK 11 AUDIO
    TITLE "0:"
    INDEX 01 00:11:40
  TRACK 12 AUDIO
    TITLE "4:cjc115_0619"
    INDEX 01 00:11:52
  TRACK 13 AUDIO
    TITLE "0:"
    INDEX 01 00:14:60
  TRACK 14 AUDIO
    TITLE "2:cjc115_0620"
    INDEX 01 00:15:70
  TRACK 15 AUDIO
    TITLE "0:"
    INDEX 01 00:17:06
  TRACK 16 AUDIO
    TITLE "3:cjc115_0621"
    INDEX 01 00:17:14
  TRACK 17 AUDIO
    TITLE "0:"
    INDEX 01 00:19:54
  TRACK 18 AUDIO
    TITLE "4:cjc115_0622"
    INDEX 01 00:19:65
  TRACK 19 AUDIO
    TITLE "0:"
    INDEX 01 00:23:42
  TRACK 20 AUDIO
    TITLE "2:cjc115_0623"
    INDEX 01 00:24:53
  TRACK 21 AUDIO
    TITLE "0:"
    INDEX 01 00:26:05
  TRACK 22 AUDIO
    TITLE "3:cjc115_0624"
    INDEX 01 00:26:17
  TRACK 23 AUDIO
    TITLE "0:"
    INDEX 01 00:28:62
  TRACK 24 AUDIO
    TITLE "4:cjc115_0625"
    INDEX 01 00:28:72
  TRACK 25 AUDIO
    TITLE "0:"
    INDEX 01 00:32:23
  TRACK 26 AUDIO
    TITLE "2:cjc115_0626"
    INDEX 01 00:33:30
  TRACK 27 AUDIO
    TITLE "0:"
    INDEX 01 00:34:47
  TRACK 28 AUDIO
    TITLE "3:cjc115_0627"
    INDEX 01 00:34:55
  TRACK 29 AUDIO
    TITLE "0:"
    INDEX 01 00:36:62
  TRACK 30 AUDIO
    TITLE "4:cjc115_0628"
    INDEX 01 00:36:74
  TRACK 31 AUDIO
    TITLE "0:"
    INDEX 01 00:40:32
  TRACK 32 AUDIO
    TITLE "2:cjc115_0629"
    INDEX 01 00:41:45
  TRACK 33 AUDIO
    TITLE "0:"
    INDEX 01 00:42:57
  TRACK 34 AUDIO
    TITLE "3:cjc115_0630"
    INDEX 01 00:42:68
  TRACK 35 AUDIO
    TITLE "0:"
    INDEX 01 00:45:00
  TRACK 36 AUDIO
    TITLE "4:cjc115_0631"
    INDEX 01 00:45:18
  TRACK 37 AUDIO
    TITLE "0:"
    INDEX 01 00:49:20
  TRACK 38 AUDIO
    TITLE "2:cjc115_0632"
    INDEX 01 00:50:31
  TRACK 39 AUDIO
    TITLE "0:"
    INDEX 01 00:51:44
  TRACK 40 AUDIO
    TITLE "3:cjc115_0633"
    INDEX 01 00:51:56
  TRACK 41 AUDIO
    TITLE "0:"
    INDEX 01 00:53:06
  TRACK 42 AUDIO
    TITLE "4:cjc115_0634"
    INDEX 01 00:53:15
  TRACK 43 AUDIO
    TITLE "0:"
    INDEX 01 00:56:20
  TRACK 44 AUDIO
    TITLE "2:cjc115_0635"
    INDEX 01 00:57:33
  TRACK 45 AUDIO
    TITLE "0:"
    INDEX 01 00:58:62
  TRACK 46 AUDIO
    TITLE "3:cjc115_0636"
    INDEX 01 00:58:71
  TRACK 47 AUDIO
    TITLE "0:"
    INDEX 01 01:00:27
  TRACK 48 AUDIO
    TITLE "4:cjc115_0637"
    INDEX 01 01:00:35
  TRACK 49 AUDIO
    TITLE "0:"
    INDEX 01 01:04:05
  TRACK 50 AUDIO
    TITLE "2:cjc115_0638"
    INDEX 01 01:05:15
  TRACK 51 AUDIO
    TITLE "0:"
    INDEX 01 01:06:32
  TRACK 52 AUDIO
    TITLE "3:cjc115_0639"
    INDEX 01 01:06:43
  TRACK 53 AUDIO
    TITLE "0:"
    INDEX 01 01:08:05
  TRACK 54 AUDIO
    TITLE "4:cjc115_0640"
    INDEX 01 01:08:19
  TRACK 55 AUDIO
    TITLE "0:"
    INDEX 01 01:11:47
  TRACK 56 AUDIO
    TITLE "2:cjc115_0641"
    INDEX 01 01:12:58
  TRACK 57 AUDIO
    TITLE "0:"
    INDEX 01 01:14:00
  TRACK 58 AUDIO
    TITLE "3:cjc115_0642"
    INDEX 01 01:14:10
  TRACK 59 AUDIO
    TITLE "0:"
    INDEX 01 01:16:60
  TRACK 60 AUDIO
    TITLE "4:cjc115_0643"
    INDEX 01 01:16:71
  TRACK 61 AUDIO
    TITLE "0:"
    INDEX 01 01:20:51
  TRACK 62 AUDIO
    TITLE "2:cjc115_0644"
    INDEX 01 01:21:63
  TRACK 63 AUDIO
    TITLE "0:"
    INDEX 01 01:23:05
  TRACK 64 AUDIO
    TITLE "3:cjc115_0645"
    INDEX 01 01:23:15
  TRACK 65 AUDIO
    TITLE "0:"
    INDEX 01 01:24:45
  TRACK 66 AUDIO
    TITLE "4:cjc115_0646"
    INDEX 01 01:24:55
  TRACK 67 AUDIO
    TITLE "0:"
    INDEX 01 01:28:41
  TRACK 68 AUDIO
    TITLE "2:cjc115_0647"
    INDEX 01 01:29:50
  TRACK 69 AUDIO
    TITLE "0:"
    INDEX 01 01:31:08
  TRACK 70 AUDIO
    TITLE "3:cjc115_0648"
    INDEX 01 01:31:16
  TRACK 71 AUDIO
    TITLE "0:"
    INDEX 01 01:32:62
  TRACK 72 AUDIO
    TITLE "4:cjc115_0649"
    INDEX 01 01:33:01
  TRACK 73 AUDIO
    TITLE "0:"
    INDEX 01 01:36:68
